<svg xmlns="http://www.w3.org/2000/svg" xmlns:xlink="http://www.w3.org/1999/xlink" viewBox="0 0 6806 3200">
<title>+1100</title>
<g transform="matrix(1,0,0,1,0,2432)">
  <path transform="matrix(1,0,0,1,0,0)" d="M 702 -192 L 702 -832 L 49 -832 L 49 -960 L 702 -960 L 702 -1600 L 807 -1600 L 807 -960 L 1463 -960 L 1463 -832 L 807 -832 L 807 -192 L 702 -192 Z"/>
  <path transform="matrix(1,0,0,1,1550,0)" d="M 315 -1664 L 748 -1792 L 791 -1792 L 791 -320 Q 791 -176 803 -140 Q 816 -105 855 -86 Q 895 -67 1016 -64 L 1016 0 L 347 0 L 347 -64 Q 473 -67 509 -85 Q 546 -103 560 -134 Q 575 -165 575 -320 L 575 -1344 Q 575 -1515 562 -1564 Q 553 -1601 528 -1620 Q 504 -1640 470 -1640 Q 421 -1640 335 -1600 L 315 -1664 Z"/>
  <path transform="matrix(1,0,0,1,2809,0)" d="M 315 -1664 L 748 -1792 L 791 -1792 L 791 -320 Q 791 -176 803 -140 Q 816 -105 855 -86 Q 895 -67 1016 -64 L 1016 0 L 347 0 L 347 -64 Q 473 -67 509 -85 Q 546 -103 560 -134 Q 575 -165 575 -320 L 575 -1344 Q 575 -1515 562 -1564 Q 553 -1601 528 -1620 Q 504 -1640 470 -1640 Q 421 -1640 335 -1600 L 315 -1664 Z"/>
  <path transform="matrix(1,0,0,1,4167,0)" d="M 97 -883 Q 97 -1179 189 -1392 Q 281 -1605 433 -1709 Q 551 -1792 677 -1792 Q 882 -1792 1045 -1590 Q 1248 -1339 1248 -910 Q 1248 -610 1159 -400 Q 1070 -190 931 -95 Q 793 0 664 0 Q 409 0 240 -291 Q 97 -537 97 -883 M 354 -852 Q 354 -488 445 -258 Q 519 -64 668 -64 Q 739 -64 815 -127 Q 891 -190 931 -339 Q 991 -562 991 -970 Q 991 -1271 928 -1473 Q 881 -1623 806 -1685 Q 752 -1728 676 -1728 Q 586 -1728 517 -1649 Q 422 -1541 388 -1309 Q 354 -1077 354 -852 Z"/>
  <path transform="matrix(1,0,0,1,5525,0)" d="M 97 -883 Q 97 -1179 189 -1392 Q 281 -1605 433 -1709 Q 551 -1792 677 -1792 Q 882 -1792 1045 -1590 Q 1248 -1339 1248 -910 Q 1248 -610 1159 -400 Q 1070 -190 931 -95 Q 793 0 664 0 Q 409 0 240 -291 Q 97 -537 97 -883 M 354 -852 Q 354 -488 445 -258 Q 519 -64 668 -64 Q 739 -64 815 -127 Q 891 -190 931 -339 Q 991 -562 991 -970 Q 991 -1271 928 -1473 Q 881 -1623 806 -1685 Q 752 -1728 676 -1728 Q 586 -1728 517 -1649 Q 422 -1541 388 -1309 Q 354 -1077 354 -852 Z"/>
</g>
</svg>
