<svg xmlns="http://www.w3.org/2000/svg" xmlns:xlink="http://www.w3.org/1999/xlink" viewBox="0 0 11889 3200">
<title>Animal(Y)</title>
<g transform="matrix(1,0,0,1,0,2432)">
  <path transform="matrix(1,0,0,1,0,0)" d="M 1230 -576 L 541 -576 L 420 -315 Q 375 -217 375 -169 Q 375 -131 414 -102 Q 453 -73 581 -64 L 581 0 L 21 0 L 21 -64 Q 133 -83 166 -113 Q 233 -173 314 -358 L 940 -1856 L 986 -1856 L 1605 -340 Q 1680 -171 1741 -120 Q 1802 -70 1911 -64 L 1911 0 L 1209 0 L 1209 -64 Q 1315 -69 1352 -97 Q 1390 -126 1390 -167 Q 1390 -221 1337 -339 L 1230 -576 M 1193 -704 L 891 -1423 L 581 -704 L 1193 -704 Z"/>
  <path transform="matrix(1,0,0,1,1934,0)" d="M 434 -1052 Q 645 -1280 837 -1280 Q 935 -1280 1006 -1228 Q 1077 -1176 1119 -1056 Q 1148 -973 1148 -800 L 1148 -256 Q 1148 -158 1166 -124 Q 1181 -95 1213 -79 Q 1245 -64 1332 -64 L 1332 0 L 738 0 L 738 -64 L 763 -64 Q 847 -64 880 -86 Q 914 -108 927 -150 Q 932 -167 932 -256 L 932 -804 Q 932 -987 889 -1069 Q 847 -1152 745 -1152 Q 589 -1152 434 -969 L 434 -256 Q 434 -152 448 -127 Q 467 -94 499 -79 Q 531 -64 630 -64 L 630 0 L 35 0 L 35 -64 L 61 -64 Q 153 -64 185 -104 Q 218 -144 218 -256 L 218 -768 Q 218 -981 208 -1027 Q 198 -1074 178 -1091 Q 158 -1108 124 -1108 Q 87 -1108 36 -1088 L 16 -1152 L 378 -1280 L 434 -1280 L 434 -1052 Z"/>
  <path transform="matrix(1,0,0,1,3292,0)" d="M 390 -1856 Q 445 -1856 483 -1819 Q 522 -1782 522 -1729 Q 522 -1676 483 -1638 Q 445 -1600 390 -1600 Q 335 -1600 295 -1638 Q 256 -1676 256 -1729 Q 256 -1782 294 -1819 Q 333 -1856 390 -1856 M 499 -1280 L 499 -256 Q 499 -159 515 -127 Q 532 -95 564 -79 Q 596 -64 681 -64 L 681 0 L 97 0 L 97 -64 Q 185 -64 215 -78 Q 246 -93 263 -127 Q 281 -161 281 -256 L 281 -768 Q 281 -971 269 -1031 Q 260 -1074 240 -1091 Q 221 -1108 187 -1108 Q 150 -1108 97 -1088 L 79 -1152 L 441 -1280 L 499 -1280 Z"/>
  <path transform="matrix(1,0,0,1,4074,0)" d="M 441 -1047 Q 572 -1166 596 -1184 Q 655 -1230 723 -1255 Q 792 -1280 859 -1280 Q 972 -1280 1053 -1220 Q 1134 -1161 1162 -1047 Q 1297 -1190 1390 -1235 Q 1483 -1280 1582 -1280 Q 1678 -1280 1752 -1228 Q 1826 -1176 1869 -1057 Q 1898 -977 1898 -804 L 1898 -256 Q 1898 -159 1915 -124 Q 1928 -99 1963 -81 Q 1999 -64 2079 -64 L 2079 0 L 1486 0 L 1486 -64 L 1511 -64 Q 1588 -64 1631 -90 Q 1662 -108 1675 -147 Q 1680 -166 1680 -256 L 1680 -829 Q 1680 -992 1645 -1059 Q 1593 -1152 1480 -1152 Q 1411 -1152 1340 -1115 Q 1270 -1078 1171 -977 L 1168 -962 L 1171 -899 L 1171 -256 Q 1171 -150 1184 -124 Q 1198 -99 1236 -81 Q 1274 -64 1366 -64 L 1366 0 L 759 0 L 759 -64 Q 858 -64 895 -84 Q 933 -104 947 -145 Q 954 -164 954 -256 L 954 -834 Q 954 -998 911 -1065 Q 853 -1152 749 -1152 Q 678 -1152 609 -1112 Q 500 -1052 441 -977 L 441 -256 Q 441 -155 457 -124 Q 474 -94 506 -79 Q 538 -64 637 -64 L 637 0 L 42 0 L 42 -64 Q 124 -64 157 -79 Q 190 -94 207 -127 Q 224 -161 224 -256 L 224 -768 Q 224 -971 212 -1030 Q 203 -1075 183 -1091 Q 164 -1108 130 -1108 Q 93 -1108 42 -1088 L 22 -1152 L 385 -1280 L 441 -1280 L 441 -1047 Z"/>
  <path transform="matrix(1,0,0,1,6200,0)" d="M 765 -114 Q 580 14 533 35 Q 462 64 382 64 Q 257 64 176 -22 Q 96 -109 96 -250 Q 96 -339 135 -404 Q 189 -494 322 -574 Q 455 -654 765 -768 L 765 -827 Q 765 -1050 708 -1133 Q 651 -1216 542 -1216 Q 460 -1216 411 -1167 Q 361 -1118 361 -1054 L 364 -971 Q 364 -904 333 -868 Q 302 -832 252 -832 Q 204 -832 173 -867 Q 142 -903 142 -965 Q 142 -1083 257 -1181 Q 373 -1280 582 -1280 Q 742 -1280 844 -1220 Q 922 -1175 958 -1079 Q 982 -1016 982 -823 L 982 -370 Q 982 -179 988 -136 Q 995 -93 1010 -78 Q 1025 -64 1045 -64 Q 1066 -64 1082 -70 Q 1109 -80 1188 -128 L 1188 -83 Q 1041 64 907 64 Q 843 64 804 23 Q 766 -17 765 -114 M 765 -207 L 765 -704 Q 567 -618 509 -583 Q 405 -520 360 -451 Q 316 -383 316 -302 Q 316 -199 372 -131 Q 429 -64 502 -64 Q 602 -64 765 -207 Z"/>
  <path transform="matrix(1,0,0,1,7430,0)" d="M 497 -1856 L 497 -256 Q 497 -159 513 -128 Q 530 -97 564 -80 Q 598 -64 692 -64 L 692 0 L 102 0 L 102 -64 Q 185 -64 215 -78 Q 246 -93 263 -127 Q 280 -161 280 -256 L 280 -1344 Q 280 -1554 271 -1602 Q 262 -1650 241 -1667 Q 221 -1685 189 -1685 Q 155 -1685 102 -1664 L 80 -1728 L 438 -1856 L 497 -1856 Z"/>
  <path transform="matrix(1,0,0,1,8212,0)" d="M 835 448 L 835 512 Q 637 418 504 292 Q 315 112 212 -132 Q 110 -376 110 -639 Q 110 -1023 311 -1339 Q 512 -1656 835 -1792 L 835 -1728 Q 674 -1645 570 -1501 Q 466 -1357 415 -1135 Q 364 -914 364 -674 Q 364 -412 407 -198 Q 441 -30 489 72 Q 538 174 620 268 Q 702 362 835 448 Z"/>
  <path transform="matrix(1,0,0,1,9123,0)" d="M 1281 -1792 L 1902 -1792 L 1902 -1728 L 1868 -1728 Q 1834 -1728 1768 -1699 Q 1702 -1670 1648 -1615 Q 1595 -1561 1516 -1439 L 1087 -757 L 1087 -320 Q 1087 -158 1124 -118 Q 1174 -64 1281 -64 L 1339 -64 L 1339 0 L 583 0 L 583 -64 L 646 -64 Q 759 -64 806 -131 Q 835 -173 835 -320 L 835 -732 L 347 -1487 Q 260 -1611 229 -1641 Q 198 -1672 101 -1716 Q 75 -1728 25 -1728 L 25 -1792 L 786 -1792 L 786 -1728 L 747 -1728 Q 685 -1728 633 -1700 Q 581 -1673 581 -1618 Q 581 -1573 662 -1455 L 1033 -877 L 1382 -1430 Q 1461 -1548 1461 -1606 Q 1461 -1641 1442 -1669 Q 1423 -1697 1387 -1712 Q 1352 -1728 1281 -1728 L 1281 -1792 Z"/>
  <path transform="matrix(1,0,0,1,11057,0)" d="M 60 -1728 L 60 -1792 Q 260 -1699 392 -1573 Q 580 -1392 682 -1148 Q 785 -905 785 -641 Q 785 -257 584 59 Q 384 376 60 512 L 60 448 Q 222 364 326 220 Q 431 77 481 -145 Q 532 -367 532 -608 Q 532 -868 489 -1083 Q 456 -1252 406 -1353 Q 357 -1454 275 -1548 Q 194 -1642 60 -1728 Z"/>
</g>
</svg>
