<svg xmlns="http://www.w3.org/2000/svg" xmlns:xlink="http://www.w3.org/1999/xlink" viewBox="0 0 10673 3200">
<title>Dorsal(Z)</title>
<g transform="matrix(1,0,0,1,0,2432)">
  <path transform="matrix(1,0,0,1,0,0)" d="M 46 0 L 46 -64 L 113 -64 Q 226 -64 273 -133 Q 302 -175 302 -320 L 302 -1472 Q 302 -1632 265 -1673 Q 214 -1728 113 -1728 L 46 -1728 L 46 -1792 L 771 -1792 Q 1170 -1792 1378 -1701 Q 1586 -1610 1712 -1397 Q 1839 -1184 1839 -905 Q 1839 -531 1613 -280 Q 1360 0 841 0 L 46 0 M 554 -164 Q 721 -128 834 -128 Q 1138 -128 1339 -335 Q 1540 -542 1540 -896 Q 1540 -1253 1339 -1458 Q 1138 -1664 823 -1664 Q 705 -1664 554 -1627 L 554 -164 Z"/>
  <path transform="matrix(1,0,0,1,1934,0)" d="M 672 -1280 Q 945 -1280 1111 -1061 Q 1251 -874 1251 -632 Q 1251 -462 1173 -287 Q 1096 -113 960 -24 Q 825 64 658 64 Q 386 64 226 -164 Q 91 -357 91 -596 Q 91 -771 173 -943 Q 255 -1115 389 -1197 Q 523 -1280 672 -1280 M 632 -1152 Q 562 -1152 492 -1111 Q 422 -1070 378 -967 Q 335 -864 335 -702 Q 335 -442 439 -253 Q 544 -64 714 -64 Q 842 -64 924 -168 Q 1007 -272 1007 -527 Q 1007 -844 869 -1027 Q 776 -1152 632 -1152 Z"/>
  <path transform="matrix(1,0,0,1,3292,0)" d="M 436 -1280 L 436 -1021 Q 587 -1280 745 -1280 Q 818 -1280 865 -1238 Q 912 -1196 912 -1141 Q 912 -1092 878 -1058 Q 844 -1024 797 -1024 Q 751 -1024 694 -1056 Q 637 -1088 609 -1088 Q 586 -1088 558 -1064 Q 499 -1016 436 -905 L 436 -256 Q 436 -173 461 -130 Q 478 -100 521 -82 Q 565 -64 646 -64 L 646 0 L 30 0 L 30 -64 Q 122 -64 167 -89 Q 199 -107 212 -146 Q 219 -166 219 -256 L 219 -768 Q 219 -987 210 -1028 Q 202 -1070 179 -1089 Q 156 -1108 122 -1108 Q 81 -1108 30 -1088 L 17 -1152 L 381 -1280 L 436 -1280 Z"/>
  <path transform="matrix(1,0,0,1,4202,0)" d="M 861 -1280 L 861 -896 L 818 -896 Q 768 -1045 690 -1098 Q 612 -1152 491 -1152 Q 399 -1152 342 -1104 Q 286 -1057 286 -1000 Q 286 -928 328 -877 Q 369 -825 494 -766 L 685 -676 Q 952 -540 952 -318 Q 952 -146 828 -41 Q 704 64 550 64 Q 440 64 298 16 Q 255 0 227 0 Q 197 0 180 64 L 137 64 L 137 -384 L 180 -384 Q 217 -225 320 -144 Q 424 -64 552 -64 Q 643 -64 700 -113 Q 757 -163 757 -232 Q 757 -316 693 -373 Q 630 -431 439 -523 Q 249 -615 190 -698 Q 131 -779 131 -903 Q 131 -1064 233 -1172 Q 335 -1280 496 -1280 Q 567 -1280 668 -1241 Q 735 -1216 758 -1216 Q 779 -1216 790 -1228 Q 802 -1240 818 -1280 L 861 -1280 Z"/>
  <path transform="matrix(1,0,0,1,5240,0)" d="M 765 -114 Q 580 14 533 35 Q 462 64 382 64 Q 257 64 176 -22 Q 96 -109 96 -250 Q 96 -339 135 -404 Q 189 -494 322 -574 Q 455 -654 765 -768 L 765 -827 Q 765 -1050 708 -1133 Q 651 -1216 542 -1216 Q 460 -1216 411 -1167 Q 361 -1118 361 -1054 L 364 -971 Q 364 -904 333 -868 Q 302 -832 252 -832 Q 204 -832 173 -867 Q 142 -903 142 -965 Q 142 -1083 257 -1181 Q 373 -1280 582 -1280 Q 742 -1280 844 -1220 Q 922 -1175 958 -1079 Q 982 -1016 982 -823 L 982 -370 Q 982 -179 988 -136 Q 995 -93 1010 -78 Q 1025 -64 1045 -64 Q 1066 -64 1082 -70 Q 1109 -80 1188 -128 L 1188 -83 Q 1041 64 907 64 Q 843 64 804 23 Q 766 -17 765 -114 M 765 -207 L 765 -704 Q 567 -618 509 -583 Q 405 -520 360 -451 Q 316 -383 316 -302 Q 316 -199 372 -131 Q 429 -64 502 -64 Q 602 -64 765 -207 Z"/>
  <path transform="matrix(1,0,0,1,6470,0)" d="M 497 -1856 L 497 -256 Q 497 -159 513 -128 Q 530 -97 564 -80 Q 598 -64 692 -64 L 692 0 L 102 0 L 102 -64 Q 185 -64 215 -78 Q 246 -93 263 -127 Q 280 -161 280 -256 L 280 -1344 Q 280 -1554 271 -1602 Q 262 -1650 241 -1667 Q 221 -1685 189 -1685 Q 155 -1685 102 -1664 L 80 -1728 L 438 -1856 L 497 -1856 Z"/>
  <path transform="matrix(1,0,0,1,7252,0)" d="M 835 448 L 835 512 Q 637 418 504 292 Q 315 112 212 -132 Q 110 -376 110 -639 Q 110 -1023 311 -1339 Q 512 -1656 835 -1792 L 835 -1728 Q 674 -1645 570 -1501 Q 466 -1357 415 -1135 Q 364 -914 364 -674 Q 364 -412 407 -198 Q 441 -30 489 72 Q 538 174 620 268 Q 702 362 835 448 Z"/>
  <path transform="matrix(1,0,0,1,8163,0)" d="M 1546 -1792 L 377 -128 L 1106 -128 Q 1274 -128 1364 -200 Q 1454 -272 1524 -492 L 1567 -485 L 1483 0 L 34 0 L 34 -58 L 1176 -1664 L 606 -1664 Q 465 -1664 401 -1633 Q 337 -1603 304 -1544 Q 271 -1486 243 -1326 L 193 -1326 L 230 -1792 L 1546 -1792 Z"/>
  <path transform="matrix(1,0,0,1,9841,0)" d="M 60 -1728 L 60 -1792 Q 260 -1699 392 -1573 Q 580 -1392 682 -1148 Q 785 -905 785 -641 Q 785 -257 584 59 Q 384 376 60 512 L 60 448 Q 222 364 326 220 Q 431 77 481 -145 Q 532 -367 532 -608 Q 532 -868 489 -1083 Q 456 -1252 406 -1353 Q 357 -1454 275 -1548 Q 194 -1642 60 -1728 Z"/>
</g>
</svg>
