<svg xmlns="http://www.w3.org/2000/svg" xmlns:xlink="http://www.w3.org/1999/xlink" viewBox="0 0 9187 3200">
<title>Left(-X)</title>
<g transform="matrix(1,0,0,1,0,2432)">
  <path transform="matrix(1,0,0,1,0,0)" d="M 1541 -512 L 1584 -502 L 1432 0 L 54 0 L 54 -64 L 121 -64 Q 234 -64 282 -134 Q 310 -174 310 -320 L 310 -1472 Q 310 -1632 273 -1673 Q 222 -1728 121 -1728 L 54 -1728 L 54 -1792 L 860 -1792 L 860 -1728 Q 718 -1730 661 -1706 Q 604 -1682 583 -1645 Q 562 -1609 562 -1472 L 562 -335 Q 562 -224 583 -183 Q 599 -155 631 -141 Q 664 -128 836 -128 L 966 -128 Q 1171 -128 1253 -158 Q 1336 -189 1404 -267 Q 1473 -345 1541 -512 Z"/>
  <path transform="matrix(1,0,0,1,1678,0)" d="M 286 -768 Q 285 -498 416 -345 Q 547 -192 724 -192 Q 842 -192 929 -250 Q 1017 -308 1076 -448 L 1117 -425 Q 1089 -240 956 -88 Q 824 64 625 64 Q 408 64 254 -113 Q 100 -291 100 -591 Q 100 -916 258 -1098 Q 416 -1280 655 -1280 Q 857 -1280 987 -1140 Q 1117 -1001 1117 -768 L 286 -768 M 286 -832 L 843 -832 Q 836 -947 815 -995 Q 783 -1068 718 -1110 Q 653 -1152 582 -1152 Q 473 -1152 386 -1067 Q 300 -983 286 -832 Z"/>
  <path transform="matrix(1,0,0,1,2908,0)" d="M 554 -1152 L 554 -384 Q 554 -185 591 -132 Q 639 -64 721 -64 L 830 -64 L 830 0 L 112 0 L 112 -64 L 166 -64 Q 218 -64 261 -95 Q 304 -126 320 -179 Q 337 -232 337 -384 L 337 -1152 L 104 -1152 L 104 -1216 L 337 -1216 L 337 -1292 Q 337 -1466 395 -1586 Q 453 -1707 571 -1781 Q 690 -1856 838 -1856 Q 976 -1856 1092 -1770 Q 1168 -1713 1168 -1641 Q 1168 -1603 1134 -1569 Q 1100 -1536 1060 -1536 Q 1030 -1536 996 -1553 Q 963 -1571 914 -1629 Q 866 -1687 826 -1708 Q 785 -1728 735 -1728 Q 675 -1728 633 -1699 Q 591 -1670 572 -1609 Q 554 -1548 554 -1294 L 554 -1216 L 864 -1216 L 864 -1152 L 554 -1152 Z"/>
  <path transform="matrix(1,0,0,1,3818,0)" d="M 433 -1600 L 433 -1216 L 714 -1216 L 714 -1152 L 433 -1152 L 433 -285 Q 433 -155 466 -109 Q 500 -64 553 -64 Q 596 -64 637 -80 Q 678 -96 700 -128 L 751 -128 Q 705 -32 621 16 Q 537 64 448 64 Q 388 64 330 28 Q 272 -8 244 -75 Q 217 -142 217 -282 L 217 -1152 L 26 -1152 L 26 -1182 Q 98 -1208 173 -1269 Q 249 -1331 308 -1423 Q 339 -1471 392 -1600 L 433 -1600 Z"/>
  <path transform="matrix(1,0,0,1,4600,0)" d="M 835 448 L 835 512 Q 637 418 504 292 Q 315 112 212 -132 Q 110 -376 110 -639 Q 110 -1023 311 -1339 Q 512 -1656 835 -1792 L 835 -1728 Q 674 -1645 570 -1501 Q 466 -1357 415 -1135 Q 364 -914 364 -674 Q 364 -412 407 -198 Q 441 -30 489 72 Q 538 174 620 268 Q 702 362 835 448 Z"/>
  <path transform="matrix(1,0,0,1,5510,0)" d="M 109 -768 L 788 -768 L 788 -512 L 109 -512 L 109 -768 Z"/>
  <path transform="matrix(1,0,0,1,6420,0)" d="M 1096 -987 L 1479 -416 Q 1638 -190 1715 -130 Q 1792 -70 1910 -64 L 1910 0 L 1146 0 L 1146 -64 Q 1222 -65 1259 -79 Q 1286 -90 1304 -113 Q 1322 -137 1322 -161 Q 1322 -190 1310 -218 Q 1301 -240 1238 -329 L 935 -781 L 563 -308 Q 504 -235 492 -211 Q 480 -187 480 -160 Q 480 -120 515 -94 Q 551 -68 651 -64 L 651 0 L 20 0 L 20 -64 Q 87 -70 135 -90 Q 217 -122 290 -177 Q 364 -232 458 -345 L 873 -874 L 528 -1386 Q 385 -1594 285 -1659 Q 185 -1724 55 -1728 L 55 -1792 L 878 -1792 L 878 -1728 Q 773 -1724 734 -1694 Q 696 -1665 696 -1629 Q 696 -1581 759 -1489 L 1034 -1079 L 1348 -1480 Q 1403 -1550 1415 -1576 Q 1428 -1602 1428 -1629 Q 1428 -1657 1412 -1677 Q 1393 -1705 1362 -1716 Q 1332 -1727 1238 -1728 L 1238 -1792 L 1869 -1792 L 1869 -1728 Q 1794 -1724 1747 -1705 Q 1676 -1675 1617 -1624 Q 1558 -1573 1450 -1436 L 1096 -987 Z"/>
  <path transform="matrix(1,0,0,1,8355,0)" d="M 60 -1728 L 60 -1792 Q 260 -1699 392 -1573 Q 580 -1392 682 -1148 Q 785 -905 785 -641 Q 785 -257 584 59 Q 384 376 60 512 L 60 448 Q 222 364 326 220 Q 431 77 481 -145 Q 532 -367 532 -608 Q 532 -868 489 -1083 Q 456 -1252 406 -1353 Q 357 -1454 275 -1548 Q 194 -1642 60 -1728 Z"/>
</g>
</svg>
