<svg xmlns="http://www.w3.org/2000/svg" xmlns:xlink="http://www.w3.org/1999/xlink" viewBox="0 0 9763 3200">
<title>Right(X)</title>
<g transform="matrix(1,0,0,1,0,2432)">
  <path transform="matrix(1,0,0,1,0,0)" d="M 1817 0 L 1342 0 L 739 -768 Q 672 -766 630 -766 Q 613 -766 593 -766 Q 574 -767 553 -768 L 553 -320 Q 553 -159 590 -119 Q 640 -64 739 -64 L 809 -64 L 809 0 L 46 0 L 46 -64 L 113 -64 Q 226 -64 274 -135 Q 302 -174 302 -320 L 302 -1472 Q 302 -1633 265 -1673 Q 214 -1728 113 -1728 L 46 -1728 L 46 -1792 L 695 -1792 Q 978 -1792 1112 -1747 Q 1247 -1703 1341 -1584 Q 1435 -1465 1435 -1301 Q 1435 -1125 1328 -995 Q 1221 -866 996 -812 L 1364 -351 Q 1490 -187 1580 -133 Q 1671 -79 1817 -64 L 1817 0 M 553 -896 Q 578 -896 596 -895 Q 615 -895 626 -895 Q 881 -895 1010 -1005 Q 1139 -1116 1139 -1287 Q 1139 -1455 1035 -1559 Q 931 -1664 759 -1664 Q 683 -1664 553 -1664 L 553 -896 Z"/>
  <path transform="matrix(1,0,0,1,1806,0)" d="M 390 -1856 Q 445 -1856 483 -1819 Q 522 -1782 522 -1729 Q 522 -1676 483 -1638 Q 445 -1600 390 -1600 Q 335 -1600 295 -1638 Q 256 -1676 256 -1729 Q 256 -1782 294 -1819 Q 333 -1856 390 -1856 M 499 -1280 L 499 -256 Q 499 -159 515 -127 Q 532 -95 564 -79 Q 596 -64 681 -64 L 681 0 L 97 0 L 97 -64 Q 185 -64 215 -78 Q 246 -93 263 -127 Q 281 -161 281 -256 L 281 -768 Q 281 -971 269 -1031 Q 260 -1074 240 -1091 Q 221 -1108 187 -1108 Q 150 -1108 97 -1088 L 79 -1152 L 441 -1280 L 499 -1280 Z"/>
  <path transform="matrix(1,0,0,1,2588,0)" d="M 406 -499 Q 295 -552 236 -646 Q 177 -740 177 -854 Q 177 -1029 311 -1154 Q 446 -1280 656 -1280 Q 828 -1280 954 -1216 L 1208 -1216 Q 1265 -1216 1274 -1214 Q 1283 -1212 1287 -1208 Q 1295 -1202 1295 -1185 Q 1295 -1167 1288 -1160 Q 1285 -1156 1275 -1154 Q 1265 -1152 1209 -1152 L 1053 -1152 Q 1126 -1049 1126 -890 Q 1126 -707 997 -577 Q 869 -448 652 -448 Q 563 -448 470 -474 Q 412 -411 391 -364 Q 371 -317 371 -284 Q 371 -256 392 -230 Q 414 -204 477 -192 Q 514 -192 661 -192 Q 932 -192 1012 -192 Q 1134 -174 1207 -98 Q 1280 -22 1280 89 Q 1280 243 1141 378 Q 936 576 606 576 Q 353 576 178 463 Q 80 397 80 327 Q 80 296 94 264 Q 117 216 186 130 Q 195 118 320 -11 Q 252 -57 224 -94 Q 196 -131 196 -177 Q 196 -230 233 -300 Q 271 -370 406 -499 M 634 -1216 Q 537 -1216 471 -1140 Q 406 -1065 406 -909 Q 406 -707 495 -596 Q 563 -512 668 -512 Q 768 -512 832 -585 Q 896 -658 896 -814 Q 896 -1017 806 -1132 Q 739 -1216 634 -1216 M 392 0 Q 331 68 299 127 Q 268 186 268 236 Q 268 301 344 349 Q 475 432 723 432 Q 960 432 1072 340 Q 1184 249 1184 144 Q 1184 69 1117 38 Q 1049 6 846 0 Q 551 0 392 0 Z"/>
  <path transform="matrix(1,0,0,1,3946,0)" d="M 437 -1856 L 437 -1054 Q 583 -1198 668 -1239 Q 753 -1280 838 -1280 Q 941 -1280 1014 -1220 Q 1088 -1160 1123 -1032 Q 1148 -943 1148 -707 L 1148 -256 Q 1148 -158 1166 -122 Q 1180 -95 1211 -79 Q 1243 -64 1327 -64 L 1327 0 L 736 0 L 736 -64 L 764 -64 Q 848 -64 881 -86 Q 914 -108 927 -150 Q 931 -168 931 -256 L 931 -728 Q 931 -947 910 -1015 Q 890 -1084 845 -1118 Q 801 -1152 738 -1152 Q 673 -1152 603 -1115 Q 534 -1079 437 -968 L 437 -256 Q 437 -150 451 -124 Q 465 -99 502 -81 Q 539 -64 631 -64 L 631 0 L 35 0 L 35 -64 Q 115 -64 161 -85 Q 187 -97 203 -128 Q 219 -159 219 -256 L 219 -1344 Q 219 -1554 209 -1602 Q 199 -1651 179 -1668 Q 159 -1685 125 -1685 Q 97 -1685 35 -1664 L 17 -1728 L 377 -1856 L 437 -1856 Z"/>
  <path transform="matrix(1,0,0,1,5304,0)" d="M 433 -1600 L 433 -1216 L 714 -1216 L 714 -1152 L 433 -1152 L 433 -285 Q 433 -155 466 -109 Q 500 -64 553 -64 Q 596 -64 637 -80 Q 678 -96 700 -128 L 751 -128 Q 705 -32 621 16 Q 537 64 448 64 Q 388 64 330 28 Q 272 -8 244 -75 Q 217 -142 217 -282 L 217 -1152 L 26 -1152 L 26 -1182 Q 98 -1208 173 -1269 Q 249 -1331 308 -1423 Q 339 -1471 392 -1600 L 433 -1600 Z"/>
  <path transform="matrix(1,0,0,1,6086,0)" d="M 835 448 L 835 512 Q 637 418 504 292 Q 315 112 212 -132 Q 110 -376 110 -639 Q 110 -1023 311 -1339 Q 512 -1656 835 -1792 L 835 -1728 Q 674 -1645 570 -1501 Q 466 -1357 415 -1135 Q 364 -914 364 -674 Q 364 -412 407 -198 Q 441 -30 489 72 Q 538 174 620 268 Q 702 362 835 448 Z"/>
  <path transform="matrix(1,0,0,1,6996,0)" d="M 1096 -987 L 1479 -416 Q 1638 -190 1715 -130 Q 1792 -70 1910 -64 L 1910 0 L 1146 0 L 1146 -64 Q 1222 -65 1259 -79 Q 1286 -90 1304 -113 Q 1322 -137 1322 -161 Q 1322 -190 1310 -218 Q 1301 -240 1238 -329 L 935 -781 L 563 -308 Q 504 -235 492 -211 Q 480 -187 480 -160 Q 480 -120 515 -94 Q 551 -68 651 -64 L 651 0 L 20 0 L 20 -64 Q 87 -70 135 -90 Q 217 -122 290 -177 Q 364 -232 458 -345 L 873 -874 L 528 -1386 Q 385 -1594 285 -1659 Q 185 -1724 55 -1728 L 55 -1792 L 878 -1792 L 878 -1728 Q 773 -1724 734 -1694 Q 696 -1665 696 -1629 Q 696 -1581 759 -1489 L 1034 -1079 L 1348 -1480 Q 1403 -1550 1415 -1576 Q 1428 -1602 1428 -1629 Q 1428 -1657 1412 -1677 Q 1393 -1705 1362 -1716 Q 1332 -1727 1238 -1728 L 1238 -1792 L 1869 -1792 L 1869 -1728 Q 1794 -1724 1747 -1705 Q 1676 -1675 1617 -1624 Q 1558 -1573 1450 -1436 L 1096 -987 Z"/>
  <path transform="matrix(1,0,0,1,8931,0)" d="M 60 -1728 L 60 -1792 Q 260 -1699 392 -1573 Q 580 -1392 682 -1148 Q 785 -905 785 -641 Q 785 -257 584 59 Q 384 376 60 512 L 60 448 Q 222 364 326 220 Q 431 77 481 -145 Q 532 -367 532 -608 Q 532 -868 489 -1083 Q 456 -1252 406 -1353 Q 357 -1454 275 -1548 Q 194 -1642 60 -1728 Z"/>
</g>
</svg>
