<svg xmlns="http://www.w3.org/2000/svg" xmlns:xlink="http://www.w3.org/1999/xlink" viewBox="0 0 12837 3200">
<title>Vegetal(-Y)</title>
<g transform="matrix(1,0,0,1,0,2432)">
  <path transform="matrix(1,0,0,1,0,0)" d="M 1908 -1792 L 1908 -1728 Q 1814 -1711 1765 -1668 Q 1696 -1604 1642 -1472 L 1021 64 L 973 64 L 306 -1490 Q 255 -1608 234 -1635 Q 201 -1675 153 -1698 Q 105 -1721 24 -1728 L 24 -1792 L 751 -1792 L 751 -1728 Q 627 -1716 590 -1686 Q 554 -1656 554 -1609 Q 554 -1543 614 -1404 L 1067 -361 L 1487 -1391 Q 1549 -1543 1549 -1602 Q 1549 -1640 1511 -1675 Q 1473 -1710 1382 -1724 Q 1376 -1726 1360 -1728 L 1360 -1792 L 1908 -1792 Z"/>
  <path transform="matrix(1,0,0,1,1638,0)" d="M 286 -768 Q 285 -498 416 -345 Q 547 -192 724 -192 Q 842 -192 929 -250 Q 1017 -308 1076 -448 L 1117 -425 Q 1089 -240 956 -88 Q 824 64 625 64 Q 408 64 254 -113 Q 100 -291 100 -591 Q 100 -916 258 -1098 Q 416 -1280 655 -1280 Q 857 -1280 987 -1140 Q 1117 -1001 1117 -768 L 286 -768 M 286 -832 L 843 -832 Q 836 -947 815 -995 Q 783 -1068 718 -1110 Q 653 -1152 582 -1152 Q 473 -1152 386 -1067 Q 300 -983 286 -832 Z"/>
  <path transform="matrix(1,0,0,1,2868,0)" d="M 406 -499 Q 295 -552 236 -646 Q 177 -740 177 -854 Q 177 -1029 311 -1154 Q 446 -1280 656 -1280 Q 828 -1280 954 -1216 L 1208 -1216 Q 1265 -1216 1274 -1214 Q 1283 -1212 1287 -1208 Q 1295 -1202 1295 -1185 Q 1295 -1167 1288 -1160 Q 1285 -1156 1275 -1154 Q 1265 -1152 1209 -1152 L 1053 -1152 Q 1126 -1049 1126 -890 Q 1126 -707 997 -577 Q 869 -448 652 -448 Q 563 -448 470 -474 Q 412 -411 391 -364 Q 371 -317 371 -284 Q 371 -256 392 -230 Q 414 -204 477 -192 Q 514 -192 661 -192 Q 932 -192 1012 -192 Q 1134 -174 1207 -98 Q 1280 -22 1280 89 Q 1280 243 1141 378 Q 936 576 606 576 Q 353 576 178 463 Q 80 397 80 327 Q 80 296 94 264 Q 117 216 186 130 Q 195 118 320 -11 Q 252 -57 224 -94 Q 196 -131 196 -177 Q 196 -230 233 -300 Q 271 -370 406 -499 M 634 -1216 Q 537 -1216 471 -1140 Q 406 -1065 406 -909 Q 406 -707 495 -596 Q 563 -512 668 -512 Q 768 -512 832 -585 Q 896 -658 896 -814 Q 896 -1017 806 -1132 Q 739 -1216 634 -1216 M 392 0 Q 331 68 299 127 Q 268 186 268 236 Q 268 301 344 349 Q 475 432 723 432 Q 960 432 1072 340 Q 1184 249 1184 144 Q 1184 69 1117 38 Q 1049 6 846 0 Q 551 0 392 0 Z"/>
  <path transform="matrix(1,0,0,1,4226,0)" d="M 286 -768 Q 285 -498 416 -345 Q 547 -192 724 -192 Q 842 -192 929 -250 Q 1017 -308 1076 -448 L 1117 -425 Q 1089 -240 956 -88 Q 824 64 625 64 Q 408 64 254 -113 Q 100 -291 100 -591 Q 100 -916 258 -1098 Q 416 -1280 655 -1280 Q 857 -1280 987 -1140 Q 1117 -1001 1117 -768 L 286 -768 M 286 -832 L 843 -832 Q 836 -947 815 -995 Q 783 -1068 718 -1110 Q 653 -1152 582 -1152 Q 473 -1152 386 -1067 Q 300 -983 286 -832 Z"/>
  <path transform="matrix(1,0,0,1,5456,0)" d="M 433 -1600 L 433 -1216 L 714 -1216 L 714 -1152 L 433 -1152 L 433 -285 Q 433 -155 466 -109 Q 500 -64 553 -64 Q 596 -64 637 -80 Q 678 -96 700 -128 L 751 -128 Q 705 -32 621 16 Q 537 64 448 64 Q 388 64 330 28 Q 272 -8 244 -75 Q 217 -142 217 -282 L 217 -1152 L 26 -1152 L 26 -1182 Q 98 -1208 173 -1269 Q 249 -1331 308 -1423 Q 339 -1471 392 -1600 L 433 -1600 Z"/>
  <path transform="matrix(1,0,0,1,6238,0)" d="M 765 -114 Q 580 14 533 35 Q 462 64 382 64 Q 257 64 176 -22 Q 96 -109 96 -250 Q 96 -339 135 -404 Q 189 -494 322 -574 Q 455 -654 765 -768 L 765 -827 Q 765 -1050 708 -1133 Q 651 -1216 542 -1216 Q 460 -1216 411 -1167 Q 361 -1118 361 -1054 L 364 -971 Q 364 -904 333 -868 Q 302 -832 252 -832 Q 204 -832 173 -867 Q 142 -903 142 -965 Q 142 -1083 257 -1181 Q 373 -1280 582 -1280 Q 742 -1280 844 -1220 Q 922 -1175 958 -1079 Q 982 -1016 982 -823 L 982 -370 Q 982 -179 988 -136 Q 995 -93 1010 -78 Q 1025 -64 1045 -64 Q 1066 -64 1082 -70 Q 1109 -80 1188 -128 L 1188 -83 Q 1041 64 907 64 Q 843 64 804 23 Q 766 -17 765 -114 M 765 -207 L 765 -704 Q 567 -618 509 -583 Q 405 -520 360 -451 Q 316 -383 316 -302 Q 316 -199 372 -131 Q 429 -64 502 -64 Q 602 -64 765 -207 Z"/>
  <path transform="matrix(1,0,0,1,7468,0)" d="M 497 -1856 L 497 -256 Q 497 -159 513 -128 Q 530 -97 564 -80 Q 598 -64 692 -64 L 692 0 L 102 0 L 102 -64 Q 185 -64 215 -78 Q 246 -93 263 -127 Q 280 -161 280 -256 L 280 -1344 Q 280 -1554 271 -1602 Q 262 -1650 241 -1667 Q 221 -1685 189 -1685 Q 155 -1685 102 -1664 L 80 -1728 L 438 -1856 L 497 -1856 Z"/>
  <path transform="matrix(1,0,0,1,8251,0)" d="M 835 448 L 835 512 Q 637 418 504 292 Q 315 112 212 -132 Q 110 -376 110 -639 Q 110 -1023 311 -1339 Q 512 -1656 835 -1792 L 835 -1728 Q 674 -1645 570 -1501 Q 466 -1357 415 -1135 Q 364 -914 364 -674 Q 364 -412 407 -198 Q 441 -30 489 72 Q 538 174 620 268 Q 702 362 835 448 Z"/>
  <path transform="matrix(1,0,0,1,9161,0)" d="M 109 -768 L 788 -768 L 788 -512 L 109 -512 L 109 -768 Z"/>
  <path transform="matrix(1,0,0,1,10071,0)" d="M 1281 -1792 L 1902 -1792 L 1902 -1728 L 1868 -1728 Q 1834 -1728 1768 -1699 Q 1702 -1670 1648 -1615 Q 1595 -1561 1516 -1439 L 1087 -757 L 1087 -320 Q 1087 -158 1124 -118 Q 1174 -64 1281 -64 L 1339 -64 L 1339 0 L 583 0 L 583 -64 L 646 -64 Q 759 -64 806 -131 Q 835 -173 835 -320 L 835 -732 L 347 -1487 Q 260 -1611 229 -1641 Q 198 -1672 101 -1716 Q 75 -1728 25 -1728 L 25 -1792 L 786 -1792 L 786 -1728 L 747 -1728 Q 685 -1728 633 -1700 Q 581 -1673 581 -1618 Q 581 -1573 662 -1455 L 1033 -877 L 1382 -1430 Q 1461 -1548 1461 -1606 Q 1461 -1641 1442 -1669 Q 1423 -1697 1387 -1712 Q 1352 -1728 1281 -1728 L 1281 -1792 Z"/>
  <path transform="matrix(1,0,0,1,12005,0)" d="M 60 -1728 L 60 -1792 Q 260 -1699 392 -1573 Q 580 -1392 682 -1148 Q 785 -905 785 -641 Q 785 -257 584 59 Q 384 376 60 512 L 60 448 Q 222 364 326 220 Q 431 77 481 -145 Q 532 -367 532 -608 Q 532 -868 489 -1083 Q 456 -1252 406 -1353 Q 357 -1454 275 -1548 Q 194 -1642 60 -1728 Z"/>
</g>
</svg>
