<svg xmlns="http://www.w3.org/2000/svg" xmlns:xlink="http://www.w3.org/1999/xlink" viewBox="0 0 12261 3200">
<title>Ventral(-Z)</title>
<g transform="matrix(1,0,0,1,0,2432)">
  <path transform="matrix(1,0,0,1,0,0)" d="M 1908 -1792 L 1908 -1728 Q 1814 -1711 1765 -1668 Q 1696 -1604 1642 -1472 L 1021 64 L 973 64 L 306 -1490 Q 255 -1608 234 -1635 Q 201 -1675 153 -1698 Q 105 -1721 24 -1728 L 24 -1792 L 751 -1792 L 751 -1728 Q 627 -1716 590 -1686 Q 554 -1656 554 -1609 Q 554 -1543 614 -1404 L 1067 -361 L 1487 -1391 Q 1549 -1543 1549 -1602 Q 1549 -1640 1511 -1675 Q 1473 -1710 1382 -1724 Q 1376 -1726 1360 -1728 L 1360 -1792 L 1908 -1792 Z"/>
  <path transform="matrix(1,0,0,1,1638,0)" d="M 286 -768 Q 285 -498 416 -345 Q 547 -192 724 -192 Q 842 -192 929 -250 Q 1017 -308 1076 -448 L 1117 -425 Q 1089 -240 956 -88 Q 824 64 625 64 Q 408 64 254 -113 Q 100 -291 100 -591 Q 100 -916 258 -1098 Q 416 -1280 655 -1280 Q 857 -1280 987 -1140 Q 1117 -1001 1117 -768 L 286 -768 M 286 -832 L 843 -832 Q 836 -947 815 -995 Q 783 -1068 718 -1110 Q 653 -1152 582 -1152 Q 473 -1152 386 -1067 Q 300 -983 286 -832 Z"/>
  <path transform="matrix(1,0,0,1,2868,0)" d="M 434 -1052 Q 645 -1280 837 -1280 Q 935 -1280 1006 -1228 Q 1077 -1176 1119 -1056 Q 1148 -973 1148 -800 L 1148 -256 Q 1148 -158 1166 -124 Q 1181 -95 1213 -79 Q 1245 -64 1332 -64 L 1332 0 L 738 0 L 738 -64 L 763 -64 Q 847 -64 880 -86 Q 914 -108 927 -150 Q 932 -167 932 -256 L 932 -804 Q 932 -987 889 -1069 Q 847 -1152 745 -1152 Q 589 -1152 434 -969 L 434 -256 Q 434 -152 448 -127 Q 467 -94 499 -79 Q 531 -64 630 -64 L 630 0 L 35 0 L 35 -64 L 61 -64 Q 153 -64 185 -104 Q 218 -144 218 -256 L 218 -768 Q 218 -981 208 -1027 Q 198 -1074 178 -1091 Q 158 -1108 124 -1108 Q 87 -1108 36 -1088 L 16 -1152 L 378 -1280 L 434 -1280 L 434 -1052 Z"/>
  <path transform="matrix(1,0,0,1,4226,0)" d="M 433 -1600 L 433 -1216 L 714 -1216 L 714 -1152 L 433 -1152 L 433 -285 Q 433 -155 466 -109 Q 500 -64 553 -64 Q 596 -64 637 -80 Q 678 -96 700 -128 L 751 -128 Q 705 -32 621 16 Q 537 64 448 64 Q 388 64 330 28 Q 272 -8 244 -75 Q 217 -142 217 -282 L 217 -1152 L 26 -1152 L 26 -1182 Q 98 -1208 173 -1269 Q 249 -1331 308 -1423 Q 339 -1471 392 -1600 L 433 -1600 Z"/>
  <path transform="matrix(1,0,0,1,5008,0)" d="M 436 -1280 L 436 -1021 Q 587 -1280 745 -1280 Q 818 -1280 865 -1238 Q 912 -1196 912 -1141 Q 912 -1092 878 -1058 Q 844 -1024 797 -1024 Q 751 -1024 694 -1056 Q 637 -1088 609 -1088 Q 586 -1088 558 -1064 Q 499 -1016 436 -905 L 436 -256 Q 436 -173 461 -130 Q 478 -100 521 -82 Q 565 -64 646 -64 L 646 0 L 30 0 L 30 -64 Q 122 -64 167 -89 Q 199 -107 212 -146 Q 219 -166 219 -256 L 219 -768 Q 219 -987 210 -1028 Q 202 -1070 179 -1089 Q 156 -1108 122 -1108 Q 81 -1108 30 -1088 L 17 -1152 L 381 -1280 L 436 -1280 Z"/>
  <path transform="matrix(1,0,0,1,5918,0)" d="M 765 -114 Q 580 14 533 35 Q 462 64 382 64 Q 257 64 176 -22 Q 96 -109 96 -250 Q 96 -339 135 -404 Q 189 -494 322 -574 Q 455 -654 765 -768 L 765 -827 Q 765 -1050 708 -1133 Q 651 -1216 542 -1216 Q 460 -1216 411 -1167 Q 361 -1118 361 -1054 L 364 -971 Q 364 -904 333 -868 Q 302 -832 252 -832 Q 204 -832 173 -867 Q 142 -903 142 -965 Q 142 -1083 257 -1181 Q 373 -1280 582 -1280 Q 742 -1280 844 -1220 Q 922 -1175 958 -1079 Q 982 -1016 982 -823 L 982 -370 Q 982 -179 988 -136 Q 995 -93 1010 -78 Q 1025 -64 1045 -64 Q 1066 -64 1082 -70 Q 1109 -80 1188 -128 L 1188 -83 Q 1041 64 907 64 Q 843 64 804 23 Q 766 -17 765 -114 M 765 -207 L 765 -704 Q 567 -618 509 -583 Q 405 -520 360 -451 Q 316 -383 316 -302 Q 316 -199 372 -131 Q 429 -64 502 -64 Q 602 -64 765 -207 Z"/>
  <path transform="matrix(1,0,0,1,7148,0)" d="M 497 -1856 L 497 -256 Q 497 -159 513 -128 Q 530 -97 564 -80 Q 598 -64 692 -64 L 692 0 L 102 0 L 102 -64 Q 185 -64 215 -78 Q 246 -93 263 -127 Q 280 -161 280 -256 L 280 -1344 Q 280 -1554 271 -1602 Q 262 -1650 241 -1667 Q 221 -1685 189 -1685 Q 155 -1685 102 -1664 L 80 -1728 L 438 -1856 L 497 -1856 Z"/>
  <path transform="matrix(1,0,0,1,7931,0)" d="M 835 448 L 835 512 Q 637 418 504 292 Q 315 112 212 -132 Q 110 -376 110 -639 Q 110 -1023 311 -1339 Q 512 -1656 835 -1792 L 835 -1728 Q 674 -1645 570 -1501 Q 466 -1357 415 -1135 Q 364 -914 364 -674 Q 364 -412 407 -198 Q 441 -30 489 72 Q 538 174 620 268 Q 702 362 835 448 Z"/>
  <path transform="matrix(1,0,0,1,8841,0)" d="M 109 -768 L 788 -768 L 788 -512 L 109 -512 L 109 -768 Z"/>
  <path transform="matrix(1,0,0,1,9751,0)" d="M 1546 -1792 L 377 -128 L 1106 -128 Q 1274 -128 1364 -200 Q 1454 -272 1524 -492 L 1567 -485 L 1483 0 L 34 0 L 34 -58 L 1176 -1664 L 606 -1664 Q 465 -1664 401 -1633 Q 337 -1603 304 -1544 Q 271 -1486 243 -1326 L 193 -1326 L 230 -1792 L 1546 -1792 Z"/>
  <path transform="matrix(1,0,0,1,11429,0)" d="M 60 -1728 L 60 -1792 Q 260 -1699 392 -1573 Q 580 -1392 682 -1148 Q 785 -905 785 -641 Q 785 -257 584 59 Q 384 376 60 512 L 60 448 Q 222 364 326 220 Q 431 77 481 -145 Q 532 -367 532 -608 Q 532 -868 489 -1083 Q 456 -1252 406 -1353 Q 357 -1454 275 -1548 Q 194 -1642 60 -1728 Z"/>
</g>
</svg>
